<svg aria-hidden="true" style="position: absolute; width: 0; height: 0; overflow: hidden;" version="1.1" xmlns="http://www.w3.org/2000/svg" xmlns:xlink="http://www.w3.org/1999/xlink">
<defs>
<symbol id="icon-youtube" viewBox="0 0 39 28">
<path fill="#e42f08" style="fill: var(--color1, #e42f08)" d="M37.287 4.56c-0.212-0.829-0.628-1.585-1.205-2.192s-1.296-1.044-2.085-1.267c-2.904-0.826-14.571-0.826-14.571-0.826s-11.668 0-14.571 0.826c-0.788 0.223-1.507 0.66-2.085 1.267s-0.993 1.363-1.205 2.192c-0.542 3.114-0.805 6.274-0.786 9.44-0.019 3.165 0.244 6.326 0.786 9.44 0.212 0.829 0.628 1.585 1.205 2.192s1.296 1.044 2.085 1.267c2.904 0.826 14.571 0.826 14.571 0.826s11.667 0 14.571-0.826c0.789-0.223 1.507-0.66 2.085-1.267s0.993-1.363 1.205-2.192c0.542-3.114 0.805-6.274 0.786-9.44 0.019-3.165-0.244-6.326-0.786-9.44zM15.696 19.882v-11.764l9.683 5.882-9.683 5.882z"></path>
</symbol>
<symbol id="icon-twitter" viewBox="0 0 35 28">
<path fill="#21a6df" style="fill: var(--color2, #21a6df)" d="M34.301 3.452c-1.234 0.54-2.577 0.929-3.961 1.081 1.436-0.866 2.512-2.234 3.025-3.848-1.348 0.814-2.825 1.384-4.364 1.686-0.644-0.698-1.422-1.254-2.287-1.634s-1.797-0.574-2.739-0.572c-3.812 0-6.877 3.135-6.877 6.983 0 0.54 0.065 1.081 0.169 1.6-5.708-0.303-10.798-3.070-14.182-7.307-0.617 1.069-0.94 2.286-0.936 3.524 0 2.423 1.214 4.56 3.066 5.817-1.091-0.044-2.157-0.348-3.11-0.888v0.086c0 3.393 2.364 6.205 5.514 6.852-0.591 0.156-1.2 0.236-1.811 0.237-0.448 0-0.871-0.045-1.299-0.107 0.871 2.767 3.408 4.777 6.43 4.842-2.364 1.879-5.324 2.984-8.539 2.984-0.577 0-1.109-0.020-1.662-0.086 3.049 1.985 6.668 3.131 10.564 3.131 12.649 0 19.571-10.634 19.571-19.865 0-0.303 0-0.606-0.020-0.909 1.339-0.995 2.513-2.227 3.449-3.61z"></path>
</symbol>
<symbol id="icon-instagram" viewBox="0 0 29 28">
<path fill="#e61f5a" style="fill: var(--color3, #e61f5a)" d="M14.585 6.822c-3.973 0-7.179 3.206-7.179 7.178s3.206 7.178 7.179 7.178c3.973 0 7.178-3.206 7.178-7.178s-3.206-7.178-7.178-7.178zM14.585 18.666c-2.569 0-4.666-2.097-4.666-4.666s2.097-4.665 4.666-4.665 4.666 2.096 4.666 4.665c0 2.569-2.097 4.666-4.666 4.666zM22.058 4.855c-0.927 0-1.676 0.749-1.676 1.677s0.749 1.676 1.676 1.676c0.928 0 1.677-0.745 1.677-1.676 0-0.22-0.043-0.438-0.127-0.642s-0.208-0.388-0.363-0.544-0.341-0.279-0.544-0.363c-0.204-0.084-0.422-0.127-0.642-0.127zM28.578 14c0-1.932 0.018-3.846-0.091-5.775-0.109-2.24-0.619-4.228-2.257-5.866-1.642-1.641-3.626-2.149-5.866-2.258-1.932-0.108-3.846-0.091-5.775-0.091-1.932 0-3.847-0.018-5.775 0.091-2.24 0.108-4.228 0.619-5.866 2.258-1.641 1.642-2.149 3.626-2.258 5.866-0.109 1.932-0.091 3.846-0.091 5.775s-0.018 3.846 0.091 5.775c0.109 2.24 0.62 4.228 2.258 5.866 1.642 1.642 3.626 2.149 5.866 2.257 1.932 0.109 3.847 0.091 5.775 0.091 1.932 0 3.847 0.018 5.775-0.091 2.24-0.108 4.228-0.619 5.866-2.257 1.642-1.642 2.149-3.626 2.257-5.866 0.112-1.928 0.091-3.843 0.091-5.775zM25.498 22.253c-0.256 0.637-0.563 1.113-1.057 1.603-0.494 0.494-0.966 0.802-1.603 1.057-1.841 0.732-6.212 0.567-8.253 0.567s-6.416 0.165-8.257-0.563c-0.637-0.256-1.113-0.563-1.603-1.057-0.494-0.494-0.802-0.966-1.057-1.603-0.728-1.845-0.563-6.216-0.563-8.256s-0.165-6.415 0.563-8.256c0.256-0.637 0.564-1.113 1.057-1.603s0.966-0.802 1.603-1.057c1.841-0.728 6.216-0.564 8.257-0.564s6.416-0.164 8.256 0.564c0.637 0.255 1.113 0.563 1.603 1.057 0.494 0.494 0.802 0.966 1.057 1.603 0.728 1.841 0.563 6.216 0.563 8.256s0.165 6.412-0.567 8.253z"></path>
</symbol>
<symbol id="icon-facebook" viewBox="0 0 29 28">
<path fill="#335bf5" style="fill: var(--color4, #335bf5)" d="M27.463 0h-25.76c-0.619 0-1.12 0.5-1.12 1.12v25.76c0 0.619 0.5 1.12 1.12 1.12h25.76c0.619 0 1.12-0.5 1.12-1.12v-25.76c0-0.619-0.501-1.12-1.12-1.12zM24.229 8.172h-2.237c-1.753 0-2.093 0.833-2.093 2.058v2.699h4.186l-0.546 4.225h-3.64v10.846h-4.364v-10.843h-3.651v-4.228h3.651v-3.115c0-3.616 2.208-5.586 5.435-5.586 1.547 0 2.873 0.115 3.262 0.168v3.777h-0.003z"></path>
</symbol>
</defs>
</svg>
